# xmcd CD database file
#
# Track frame offsets:
#	150
#	14248
#	28826
#	40634
#	55054
#	69375
#	87739
#	123655
#	138875
#	149548
#	162428
#	227796
#	253632
#	273072
#	291598
#	304816
#
# Disc length: 4266 seconds
#
# Revision: 1
# Processed by: cddbd v1.5.1PL0 Copyright (c) Steve Scherf et al.
# Submitted via: CDex 1.50
#
DISCID=f310a810
DTITLE=Duke Ellington - Kinda Dukish
DYEAR=1998
DGENRE=Jazz
TTITLE0=Creole Love Call (Duke Ellington - Bubber Miley)
TTITLE1=Jack The Bear (Duke Ellington)
TTITLE2=Ko - Ko (Duke Ellington)
TTITLE3=Concerto For Cootie (Duke Ellington)
TTITLE4=Don't Get Around Much Anymore (Never No Lament) (Duke Ellington)
TTITLE5=Caravan (Duke Ellington - Juan Tizol - I.Mills))
TTITLE6=Take The 'A' Train (Billy Strayhorn)
TTITLE7=East St.Louis Toodle-00 (Duke Ellington - Bubber Miley)
TTITLE8=The Jeep Is Jumpin' (Duke Ellington)
TTITLE9=In A Mellow Tone (Duke Ellington)
TTITLE10=Diminuendo And Crescendo In Blue (Duke Ellington)
TTITLE11=Kinda Dukish/Rockin' In Rhytm (Duke Ellington)
TTITLE12=It Don't Mean A Thing (Duke Ellington)
TTITLE13=In A Sentimental Mood (Duke Ellington)
TTITLE14=Sophisticated Lady (Duke Ellington)
TTITLE15=Solitude
EXTD=YEAR: 1998
EXTT0=
EXTT1=
EXTT2=
EXTT3=
EXTT4=
EXTT5=
EXTT6=
EXTT7=
EXTT8=
EXTT9=
EXTT10=
EXTT11=
EXTT12=
EXTT13=
EXTT14=
EXTT15=
PLAYORDER=
